{"title":"American.Hero.2015.WEBRip.480p.x264.AAC-VYTO [P2PDL]","uid":12985756,"size":323913487,"categoryP":"video","categoryS":"movies","magnet":"?xt=urn:btih:c62b6c7735a5259feb4f6950c74a7a7db1c3939d&amp;dn=American.Hero.2015.WEBRip.480p.x264.AAC-VYTO+%5BP2PDL%5D&amp;tr=udp%3A%2F%2Ftracker.leechers-paradise.org%3A6969&amp;tr=udp%3A%2F%2Fzer0day.ch%3A1337&amp;tr=udp%3A%2F%2Fopen.demonii.com%3A1337&amp;tr=udp%3A%2F%2Ftracker.coppersurfer.tk%3A6969&amp;tr=udp%3A%2F%2Fexodus.desync.com%3A6969","seeders":0,"leechers":1,"uploader":"VYTOP2PDL","files":7,"time":1450078577,"description":"____    ____ ____    ____ .___________.  ______   \r\n     /   /      /   / |           | /  __    \r\n    /   /      /   /  `---|  |----`|  |  |  | \r\n        /     _    _/       |  |     |  |  |  | \r\n       /        |  |         |  |     |  `--'  | \r\n    __/         |__|         |__|      ______/  \r\n                                                  \r\nPresenting Small Encodes with quality for years!\r\n                                                                                                   \r\n                                                                                                   \r\n\r\nAmerican.Hero.2015.WEBRip.480p.x264.AAC-VYTO\r\n\r\n\r\nGenre: Action, Comedy, Sci-Fi  \nhttp://www.imdb.com/title/tt4733536/\r\n\r\n\r\nGeneral\r\nFormat                                   : MPEG-4\r\nFile size                                : 301 MiB\r\nDuration                                 : 1h 26mn\r\nOverall bit rate                         : 488 Kbps\r\n\r\nVideo\r\nFormat                                   : AVC\r\nBit rate                                 : 453 Kbps\r\nWidth                                    : 720 pixels\r\nHeight                                   : 384 pixels\r\nDisplay aspect ratio                     : 1.85:1\r\nFrame rate mode                          : Constant\r\nFrame rate                               : 24.000 fps\r\nBit depth                                : 8 bits\r\nStream size                              : 279 MiB (93%)\r\nWriting library                          : x264\r\n\r\nAudio\r\nFormat                                   : AAC\r\nBit rate mode                            : Variable\r\nBit rate                                 : 32.0 Kbps\r\nChannel(s)                               : 2 channels\r\nChannel positions                        : Front: L R \r\nSampling rate                            : 48.0 KHz\r\nStream size                              : 19.7 MiB (7%)\r\nLanguage                                 : English\r\n\r\nSubtitle                                 : Yes (English)\r\n\r\nScreen Shots (Click to view)\r\n \nhttp://ititli.com/NF \nhttp://ititli.com/NJ \nhttp://ititli.com/N5 \nhttp://ititli.com/NB \nhttp://ititli.com/NN \nhttp://ititli.com/NP \nhttp://ititli.com/Nf \nhttp://ititli.com/Nu \nhttp://ititli.com/Nv\r\n\r\n----------------------------------------------------------------------------------------------------\r\n\r\n\r\nEncoder Notes: Looking For Early Access To Anything You Can Provide WEBDL, DVDScr, DVDR, BluRay,\r\nDirect Audio, Music Releases and Seedboxes. If You Got anything to offer please contact us.\r\n\r\nSupport us by donating BC - 1FgwdzPsd1y25Gea8wP1qni35uGCtmkRCD\r\n\r\nSend some love!\r\nFind us and join us!","torrent":{"xt":"urn:btih:c62b6c7735a5259feb4f6950c74a7a7db1c3939d","amp;dn":"American.Hero.2015.WEBRip.480p.x264.AAC-VYTO+%5BP2PDL%5D","amp;tr":["udp%3A%2F%2Ftracker.leechers-paradise.org%3A6969","udp%3A%2F%2Fzer0day.ch%3A1337","udp%3A%2F%2Fopen.demonii.com%3A1337","udp%3A%2F%2Ftracker.coppersurfer.tk%3A6969","udp%3A%2F%2Fexodus.desync.com%3A6969"],"infoHash":"c62b6c7735a5259feb4f6950c74a7a7db1c3939d","infoHashBuffer":{"type":"Buffer","data":[198,43,108,119,53,165,37,159,235,79,105,80,199,74,122,125,177,195,147,157]},"announce":[],"urlList":[]}}